<?xml version="1.0" encoding="UTF-8"?>
<svg width="128px" height="127px" viewBox="0 0 128 127" version="1.1" xmlns="http://www.w3.org/2000/svg" xmlns:xlink="http://www.w3.org/1999/xlink">
    <!-- Generator: Sketch 53.2 (72643) - https://sketchapp.com -->
    <title>facebook2</title>
    <desc>Created with Sketch.</desc>
    <g id="Page-1" stroke="none" stroke-width="1" fill="none" fill-rule="evenodd">
        <g id="Artboard" transform="translate(-381.000000, -312.000000)" fill="#FFFFFF" fill-rule="nonzero">
            <g id="facebook2" transform="translate(381.000000, 312.000000)">
                <path d="M116,0 L12,0 C5.4,0 0,5.33793103 0,11.862069 L0,114.666667 C0,121.190805 5.4,126.528736 12,126.528736 L64,126.528736 L64,71.1724138 L48,71.1724138 L48,55.3563218 L64,55.3563218 L64,47.4482759 C64,34.3762759 74.776,23.7241379 88,23.7241379 L104,23.7241379 L104,39.5402299 L88,39.5402299 C83.6,39.5402299 80,43.0988506 80,47.4482759 L80,55.3563218 L104,55.3563218 L100,71.1724138 L80,71.1724138 L80,126.528736 L116,126.528736 C122.6,126.528736 128,121.190805 128,114.666667 L128,11.862069 C128,5.33793103 122.6,0 116,0 Z" id="Path"></path>
            </g>
        </g>
    </g>
</svg>