<?xml version="1.0" encoding="UTF-8"?>
<svg width="49px" height="48px" viewBox="0 0 49 48" version="1.1" xmlns="http://www.w3.org/2000/svg" xmlns:xlink="http://www.w3.org/1999/xlink">
    <!-- Generator: Sketch 53.2 (72643) - https://sketchapp.com -->
    <title>Facebook</title>
    <desc>Created with Sketch.</desc>
    <g id="Ideas" stroke="none" stroke-width="1" fill="none" fill-rule="evenodd">
        <g id="Laptop-(LG)-Copy-12" transform="translate(-1241.000000, -3366.000000)" fill="#FFFFFF" fill-rule="nonzero">
            <path d="M1286.404,3366 L1244.596,3366 C1242.89543,3366 1241.5,3367.39886 1241.5,3369.096 L1241.5,3410.904 C1241.5,3412.60114 1242.89543,3414 1244.596,3414 L1286.404,3414 C1288.10114,3414 1289.5,3412.60114 1289.5,3410.904 L1289.5,3369.096 C1289.5,3367.39886 1288.10114,3366 1286.404,3366 Z M1280.5,3380.962 L1276.51252,3380.962 C1273.3859,3380.962 1272.77986,3382.43415 1272.77986,3384.59124 L1272.77986,3389.35185 L1280.2383,3389.35185 L1279.26726,3396.80116 L1272.77986,3396.80116 L1272.77986,3414 L1265.00462,3414 L1265.00462,3396.80116 L1258.5,3396.80116 L1258.5,3389.34844 L1265.00462,3389.34844 L1265.00462,3383.85176 C1265.00462,3377.47248 1268.94044,3374 1274.69095,3374 C1277.44569,3374 1279.81132,3374.20446 1280.5,3374.29647 L1280.5,3380.962 Z" id="Facebook"></path>
        </g>
    </g>
</svg>