<?xml version="1.0" encoding="UTF-8"?>
<svg width="49px" height="48px" viewBox="0 0 49 48" version="1.1" xmlns="http://www.w3.org/2000/svg" xmlns:xlink="http://www.w3.org/1999/xlink">
    <!-- Generator: Sketch 53.2 (72643) - https://sketchapp.com -->
    <title>Instagram</title>
    <desc>Created with Sketch.</desc>
    <g id="Ideas" stroke="none" stroke-width="1" fill="none" fill-rule="evenodd">
        <g id="Laptop-(LG)-Copy-12" transform="translate(-1503.000000, -3366.000000)" fill="#FFFFFF" fill-rule="nonzero">
            <g id="Instagram" transform="translate(1503.000000, 3366.000000)">
                <path d="M35.2534514,0 L13.7459808,0 C6.44215139,0 0.5,5.94243531 0.5,13.2462647 L0.5,34.7537352 C0.5,42.0578485 6.44215139,48 13.7459808,48 L35.2534514,48 C42.5578485,48 48.5,42.0575645 48.5,34.7537352 L48.5,13.2462647 C48.5002838,5.94243531 42.5578485,0 35.2534514,0 Z M43.5,34.1223411 C43.5,39.0176036 39.5173518,43 34.6221244,43 L13.3773146,43 C8.4823677,43.0002805 4.5,39.0176036 4.5,34.1223411 L4.5,12.8776589 C4.5,7.9826768 8.4823677,4 13.3773146,4 L34.6218441,4 C39.5170715,4 43.4997195,7.9826768 43.4997195,12.8776589 L43.4997195,34.1223411 L43.5,34.1223411 Z" id="Shape"></path>
                <path d="M25.5,12 C18.8831004,12 13.5,17.3832239 13.5,24.0002755 C13.5,30.6170516 18.8831004,36 25.5,36 C32.1168996,36 37.5,30.6170516 37.5,24.0002755 C37.5,17.3832239 32.1168996,12 25.5,12 Z M24.9999999,31 C20.8646676,31 17.5,27.6357397 17.5,23.5002626 C17.5,19.3645228 20.864405,16 24.9999999,16 C29.1355949,16 32.5,19.3645228 32.5,23.5002626 C32.5,27.6357397 29.1353324,31 24.9999999,31 Z" id="Shape"></path>
                <path d="M36.9999999,7 C36.2118181,7 35.4375453,7.31909091 34.8809091,7.87818183 C34.3215453,8.43454546 34,9.20909091 34,10 C34,10.7884545 34.3218181,11.5627273 34.8809091,12.1218182 C35.4372728,12.6781818 36.2118181,13 36.9999999,13 C37.7909091,13 38.5627272,12.6781818 39.1218182,12.1218182 C39.680909,11.5627273 40,10.7881818 40,10 C40,9.20909091 39.680909,8.43454546 39.1218182,7.87818183 C38.5654546,7.31909091 37.7909091,7 36.9999999,7 Z" id="Shape"></path>
            </g>
        </g>
    </g>
</svg>