<?xml version="1.0" encoding="UTF-8"?>
<svg width="49px" height="48px" viewBox="0 0 49 48" version="1.1" xmlns="http://www.w3.org/2000/svg" xmlns:xlink="http://www.w3.org/1999/xlink">
    <!-- Generator: Sketch 53.2 (72643) - https://sketchapp.com -->
    <title>Linkedin</title>
    <desc>Created with Sketch.</desc>
    <g id="Ideas" stroke="none" stroke-width="1" fill="none" fill-rule="evenodd">
        <g id="Laptop-(LG)-Copy-12" transform="translate(-1632.000000, -3366.000000)" fill="#FFFFFF" fill-rule="nonzero">
            <path d="M1676.95563,3366 L1636.0466,3366 C1634.08771,3366 1632.5,3367.53926 1632.5,3369.43909 L1632.5,3410.55946 C1632.5,3412.4594 1634.08827,3414 1636.0466,3414 L1676.95563,3414 C1678.91407,3414 1680.5,3412.4584 1680.5,3410.55946 L1680.5,3369.43909 C1680.5,3367.53982 1678.91407,3366 1676.95563,3366 Z M1646.5,3406 L1639.5,3406 L1639.5,3385 L1646.5,3385 L1646.5,3406 Z M1643.47899,3382 L1643.43116,3382 C1641.04609,3382 1639.5,3380.22302 1639.5,3377.99833 C1639.5,3375.72881 1641.09151,3374 1643.52386,3374 C1645.95643,3374 1647.45272,3375.72834 1647.5,3377.99833 C1647.5,3380.22349 1645.95698,3382 1643.47899,3382 Z M1672.5,3406 L1665.2932,3406 L1665.2932,3394.49999 C1665.2932,3391.61037 1664.249,3389.63866 1661.64277,3389.63866 C1659.64899,3389.63866 1658.46546,3390.96885 1657.94574,3392.25311 C1657.75317,3392.71179 1657.70547,3393.35331 1657.70547,3393.99394 L1657.70547,3405.99956 L1650.5,3405.99956 C1650.5,3405.99956 1650.59429,3386.52159 1650.5,3384.50571 L1657.70658,3384.50571 L1657.70658,3387.55294 C1658.66325,3386.08871 1660.37282,3384 1664.19986,3384 C1668.9433,3384 1672.5,3387.07025 1672.5,3393.67528 L1672.5,3406 Z" id="Linkedin"></path>
        </g>
    </g>
</svg>