<?xml version="1.0" encoding="UTF-8"?>
<svg width="52px" height="42px" viewBox="0 0 52 42" version="1.1" xmlns="http://www.w3.org/2000/svg" xmlns:xlink="http://www.w3.org/1999/xlink">
    <!-- Generator: Sketch 53.2 (72643) - https://sketchapp.com -->
    <title>Twitter</title>
    <desc>Created with Sketch.</desc>
    <g id="Ideas" stroke="none" stroke-width="1" fill="none" fill-rule="evenodd">
        <g id="Laptop-(LG)-Copy-12" transform="translate(-1370.000000, -3370.000000)" fill="#FFFFFF" fill-rule="nonzero">
            <path d="M1422,3374.96926 C1420.08611,3375.81252 1418.03253,3376.38441 1415.87487,3376.63973 C1418.07799,3375.32791 1419.76442,3373.24717 1420.56371,3370.77542 C1418.49713,3371.99026 1416.21601,3372.87238 1413.78543,3373.35058 C1411.83908,3371.28597 1409.07059,3370 1405.99986,3370 C1400.10873,3370 1395.33211,3374.7496 1395.33211,3380.60419 C1395.33211,3381.43453 1395.42634,3382.24552 1395.60834,3383.02102 C1386.74403,3382.57831 1378.88377,3378.35541 1373.62301,3371.93855 C1372.70341,3373.5024 1372.18026,3375.32461 1372.18026,3377.26975 C1372.18026,3380.94991 1374.06493,3384.19708 1376.92442,3386.09685 C1375.17622,3386.03872 1373.53201,3385.56053 1372.09258,3384.76568 L1372.09258,3384.89815 C1372.09258,3390.03546 1375.7709,3394.32299 1380.64821,3395.29882 C1379.7546,3395.53791 1378.81232,3395.67039 1377.83748,3395.67039 C1377.14865,3395.67039 1376.48251,3395.60255 1375.82936,3395.47328 C1377.18757,3399.68976 1381.12589,3402.75596 1385.79205,3402.84002 C1382.14295,3405.68334 1377.5418,3407.37316 1372.54427,3407.37316 C1371.68321,3407.37316 1370.83506,3407.32146 1370,3407.22776 C1374.72139,3410.24234 1380.32661,3412 1386.35097,3412 C1405.97403,3412 1416.70032,3395.83843 1416.70032,3381.82232 L1416.66455,3380.44916 C1418.76036,3378.96278 1420.57348,3377.09529 1422,3374.96926 Z" id="Twitter"></path>
        </g>
    </g>
</svg>